<svg width="880" height="202" viewBox="0 0 880 202" fill="none" xmlns="http://www.w3.org/2000/svg">
<g clip-path="url(#clip0_38_47)">
<path d="M22.9406 96.1792C22.9406 81.1869 37.6565 74.2474 52.0883 74.2474C65.4148 74.2474 79.5703 79.5211 85.4044 93.6843L100.673 84.8026C92.6204 67.5918 74.8569 56.4839 52.0883 56.4839C24.33 56.4839 4.61672 73.971 4.61672 96.1792C4.61672 147.259 85.6808 127.553 85.6808 161.975C85.6808 178.356 70.1358 184.183 53.7541 184.183C35.1539 184.183 20.7144 175.017 15.7246 160.862L0.179688 170.02C7.11926 187.783 25.9958 201.946 53.7618 201.946C83.4623 201.946 104.012 185.565 104.012 161.967C104.012 110.887 22.9482 130.593 22.9482 96.1715L22.9406 96.1792Z" fill="white"/>
<path d="M845.894 0C827.601 0 812.724 14.8771 812.724 33.1702C812.724 51.4634 827.601 66.3405 845.894 66.3405C864.187 66.3405 879.065 51.4634 879.065 33.1702C879.065 14.8771 864.187 0 845.894 0ZM845.894 48.4619C837.466 48.4619 830.603 41.5991 830.603 33.1702C830.603 24.7414 837.466 17.8786 845.894 17.8786C854.323 17.8786 861.186 24.7414 861.186 33.1702C861.186 41.5991 854.323 48.4619 845.894 48.4619Z" fill="#0064FF"/>
<path d="M531.802 56.4224C509.901 56.4224 490.249 66.1562 476.892 81.5092V60.015H459.013V198.407H476.892V129.211C476.892 98.9349 501.526 74.301 531.802 74.301V56.4224Z" fill="white"/>
<path d="M406.997 81.517C393.64 66.164 373.988 56.4302 352.087 56.4302C311.954 56.4302 279.298 89.0784 279.298 129.219C279.298 169.359 311.946 202.008 352.087 202.008C373.988 202.008 393.64 192.274 406.997 176.921V198.415H424.875V60.0151H406.997V81.5094V81.517ZM352.094 184.121C321.818 184.121 297.184 159.487 297.184 129.211C297.184 98.9351 321.818 74.3011 352.094 74.3011C382.37 74.3011 407.004 98.9351 407.004 129.211C407.004 159.487 382.37 184.121 352.094 184.121Z" fill="white"/>
<path d="M191.433 184.121C170.683 184.121 152.589 172.553 143.255 155.519H123.587C134.158 182.686 160.573 202 191.433 202C217.064 202 239.626 188.673 252.599 168.592L237.2 159.51C227.359 174.326 210.524 184.121 191.44 184.121H191.433Z" fill="white"/>
<path d="M191.433 56.4224C154.325 56.4224 123.641 84.3419 119.212 120.268C118.851 123.2 118.644 126.179 118.644 129.203C118.644 132.059 118.828 134.869 119.151 137.632L119.212 138.139H263.638C263.638 138.139 263.677 137.909 263.715 137.632C264.037 134.861 264.222 132.059 264.222 129.203C264.222 126.179 264.014 123.2 263.654 120.268C259.232 84.3342 228.541 56.4224 191.433 56.4224ZM137.267 120.276C141.551 94.2369 164.204 74.3087 191.433 74.3087C218.661 74.3087 241.323 94.2369 245.598 120.276H137.26H137.267Z" fill="white"/>
<path d="M748.418 184.121C727.668 184.121 709.575 172.553 700.24 155.519H680.573C691.143 182.686 717.558 202 748.418 202C774.05 202 796.611 188.673 809.584 168.592L794.185 159.51C784.344 174.326 767.509 184.121 748.425 184.121H748.418Z" fill="white"/>
<path d="M748.418 56.4224C711.309 56.4224 680.626 84.3419 676.197 120.268C675.836 123.2 675.629 126.179 675.629 129.203C675.629 132.059 675.813 134.869 676.136 137.632L676.197 138.139H820.623C820.623 138.139 820.661 137.909 820.7 137.632C821.022 134.861 821.206 132.059 821.206 129.203C821.206 126.179 820.999 123.2 820.638 120.268C816.217 84.3342 785.526 56.4224 748.418 56.4224ZM694.252 120.276C698.536 94.2369 721.189 74.3087 748.418 74.3087C775.646 74.3087 798.307 94.2369 802.583 120.276H694.244H694.252Z" fill="white"/>
<path d="M600.315 184.121C570.039 184.121 545.405 159.487 545.405 129.211C545.405 98.9349 570.039 74.301 600.315 74.301C620.235 74.301 637.707 84.9637 647.334 100.877L662.817 91.9493C650.097 70.6853 626.845 56.4224 600.322 56.4224C560.19 56.4224 527.534 89.0706 527.534 129.211C527.534 169.352 560.182 202 600.322 202C627.021 202 650.396 187.537 663.063 166.051L647.618 157.062C638.053 173.244 620.443 184.121 600.322 184.121H600.315Z" fill="white"/>
</g>
<defs>
<clipPath id="clip0_38_47">
<rect width="878.885" height="202" fill="white" transform="translate(0.179688)"/>
</clipPath>
</defs>
</svg>
